
<svg width="150px" height="77px" viewBox="0 0 150 77" version="1.1" xmlns="http://www.w3.org/2000/svg" xmlns:xlink="http://www.w3.org/1999/xlink">
    <!-- Generator: Sketch 51.3 (57544) - http://www.bohemiancoding.com/sketch -->
    <desc>Created with Sketch.</desc>
    <defs></defs>
    <g id="Page-1" stroke="none" stroke-width="1" fill="none" fill-rule="evenodd">
        <g id="Desktop-HD" transform="translate(-250.000000, -42.000000)" fill="#333333" fill-rule="nonzero">
            <g id="Header" transform="translate(250.000000, 42.000000)">
                <g id="logo">
                    <path d="M19.5299332,0.343069267 C20.8344056,-0.227554944 22.3252311,-0.0042672092 23.6297034,0.417498512 C24.3484942,0.615976499 24.9075538,1.11217146 25.4932352,1.55874693 C26.7444638,2.42708813 27.6229859,3.66757554 28.2619111,4.9824922 C29.0073239,6.86803307 29.5930053,8.85281294 29.5131397,10.8624026 C29.433274,11.9292217 29.6994929,12.9712312 29.5397616,14.0132406 C29.433274,15.05525 28.980702,16.0228302 28.7411051,17.0152201 C28.5813738,17.7347028 28.1288017,18.3549465 27.7560954,18.9751903 C27.7028516,18.9751903 27.5697422,19 27.5164984,19 C26.9840607,17.5610346 26.7710857,16.0228302 26.0522948,14.6334843 C25.5731009,13.8147626 25.1205289,12.9960409 24.5348474,12.2517485 C23.6829471,10.9864513 22.7778031,9.69634438 21.4733308,8.80319344 C20.5415648,8.20775948 19.6097989,7.58751578 18.7578986,6.89284282 C17.8793765,5.97488213 17.4800482,4.75920447 17.3469388,3.56833655 C17.4001825,2.25341989 18.1988391,0.88888373 19.5299332,0.343069267 Z" id="Shape"></path>
                    <path d="M5.25143253,8.52348624 C6.28803469,8.25135163 7.37520281,7.85551947 8.46237092,8.05343555 C11.0412348,8.54822575 13.5948158,9.16671351 15.9966988,10.255252 C18.221601,11.3932694 20.0419755,13.1250351 21.7865011,14.8815403 C24.0872522,16.8112221 25.3261182,19.5820473 26.5397012,22.2291749 C26.9695119,23.0208392 27.1717757,23.886722 27.5510204,24.7031259 C27.4246055,24.8020839 27.2981906,24.901042 27.1970587,25 C25.7053629,22.7734441 23.6321586,20.8932413 21.3566904,19.4583497 C19.6121649,18.5924669 17.6906584,18.1718952 15.769152,17.8997606 C14.2521732,17.8750211 12.7351944,18.1718952 11.2434987,18.5182483 C9.87821777,18.93882 8.58878582,19.5820473 7.22350493,20.0273585 C6.49029853,20.200535 5.73180914,20.3489721 4.94803678,20.4231906 C3.98728356,20.5221487 3.12766226,20.0273585 2.29332394,19.6315263 C1.1050239,18.889341 0.548798354,17.5286679 0.118987704,16.2669529 C-0.0832761318,15.2278935 -0.00742719349,14.1640946 0.194836642,13.1250351 C0.649930272,11.566446 1.81294733,10.304731 3.25407716,9.53780616 C3.86086866,9.16671351 4.49294315,8.69666281 5.25143253,8.52348624 Z" id="Shape"></path>
                    <path d="M140.407627,25.6299722 C139.488915,26.466971 138.468124,27.3996268 137.090055,27.4952839 C136.196863,27.5431124 135.150552,27.4235411 134.563597,26.7061136 C133.951122,26.0604288 133.517286,25.1995157 133.619365,24.3146884 C134.359439,23.7646606 135.176072,23.3581183 135.916145,22.7841763 C136.911417,21.9471775 137.957728,21.1101787 138.672282,20.0340374 C139.361316,18.9339818 140.280028,17.905669 140.637305,16.6621279 C140.994582,15.5859866 140.892503,14.390274 140.484186,13.3619612 C139.769632,12.2619056 138.672282,11.257507 137.268694,11.0183645 C135.533349,10.8987932 133.798004,11.3770783 132.215777,12.0466773 C130.888748,12.7880191 129.714839,13.9119889 129.229963,15.2990155 C128.745087,16.2316713 128.438849,17.2360699 128.285731,18.2404685 C127.698776,20.1775229 127.520137,22.18632 127.418058,24.1712029 C127.571177,24.9842874 127.622216,25.8212862 127.928454,26.6104565 C126.856623,28.0213974 125.197837,29.3366812 123.258334,29.2888527 C122.54378,29.312767 121.752667,29.4323382 121.114672,29.0736245 C119.915243,28.4518539 119.353807,26.9452561 119.864203,25.7734577 C120.425638,25.2473442 121.165712,24.9364589 121.778187,24.5060024 C123.947368,22.855919 125.886871,20.8232077 126.984222,18.4078682 C127.26494,17.3795554 127.367019,16.2794999 127.060781,15.251187 C126.754544,14.4620167 126.01447,13.8641604 125.197837,13.5054467 C124.100487,13.0989044 122.901057,13.2663041 121.752667,13.3380469 C119.557966,13.4337039 117.746061,14.9163875 116.546631,16.5425566 C115.602399,17.6904407 115.168563,19.1013815 114.658168,20.4644939 C114.32641,21.3254069 114.40297,22.2341485 114.35193,23.1189758 C114.173292,24.5060024 114.37745,25.893029 114.709207,27.2561413 C114.811286,28.4757682 115.321682,29.6475665 115.934157,30.7237078 C116.470072,31.7041921 117.516383,32.2542199 118.486135,32.7564192 C118.843412,32.9477332 119.226208,33.019476 119.634525,32.9955617 C120.731876,32.8999047 121.854746,32.8042477 122.875537,32.4216197 C124.202566,31.9433347 125.427515,31.2259071 126.601425,30.4606511 C127.545657,29.8388805 128.285731,29.025796 129.025804,28.2127114 C129.434121,28.7149107 129.995556,29.0736245 130.582511,29.3605955 C131.348105,29.7193093 132.088178,30.1497658 132.930331,30.3410798 C134.487038,30.6280508 136.120304,30.4606511 137.574931,29.886709 C138.442604,29.5279952 139.106118,28.9062247 139.769632,28.2844542 C140.866983,27.1365701 141.811215,25.7495435 141.836735,24.1712029 C141.300819,24.5538309 140.943542,25.1756014 140.407627,25.6299722 Z M120.042841,20.0579516 C120.093881,18.9818103 120.400118,17.9295832 120.884994,16.9490989 C121.216751,16.4229854 121.497469,15.8012148 122.058904,15.442501 C122.467221,15.15553 122.926577,14.9881303 123.385933,14.7968163 C124.8916,15.7294721 125.121278,17.7382692 124.304645,19.14921 C123.69217,20.2014371 123.130735,21.3254069 122.160983,22.1384915 C121.471949,22.664605 120.757395,23.1907186 119.889723,23.4298611 C119.736604,22.3058913 119.966282,21.1819214 120.042841,20.0579516 Z M133.568326,18.3600397 C134.027682,16.7099564 134.384959,14.964216 135.507829,13.5771894 C135.839586,13.1706471 136.375501,12.8358476 136.936937,13.0271616 C137.396293,13.2423899 137.804609,13.5293609 138.136366,13.9119889 C138.544683,14.7011592 138.672282,15.6338151 138.315005,16.4708139 C137.855649,17.6904407 137.013496,18.8144105 135.941665,19.6274951 C135.227111,20.3210084 134.410478,20.8949504 133.542806,21.3732354 C133.364167,20.3688369 133.262088,19.3405241 133.568326,18.3600397 Z" id="Shape"></path>
                    <path d="M149.689453,23.5587877 C149.614589,22.9520668 149.115495,22.5152278 148.691265,22.1026576 C148.217126,21.6658186 147.718032,21.0833666 146.994346,21.1076355 C145.946249,20.9134848 144.948061,21.4231303 144.149511,22.0298511 C143.675372,22.5637655 143.276096,23.2675617 143.450779,23.9956267 C143.999783,23.4859812 144.498876,22.8307226 145.272472,22.6123031 C145.971203,22.4181525 146.64498,22.8792603 147.06921,23.3403682 C147.693077,24.3596592 147.243893,25.5731009 146.794708,26.568123 C146.170841,28.1698661 144.62365,29.1163506 143.350961,30.1841793 C142.452592,30.9607819 141.32963,31.4218898 140.331443,32.0528795 C139.582802,32.4897185 138.734342,32.7809445 137.935792,33.144977 C136.613193,33.7031601 135.240685,34.2128057 133.818268,34.455494 C132.845035,34.6981823 131.821892,34.7952577 130.873614,35.0864837 C129.850471,35.3049032 128.827329,35.4262473 127.779232,35.474785 C125.807811,35.7417422 123.83639,35.5718603 121.86497,35.620398 C120.193005,35.5718603 118.496086,35.7174733 116.824121,35.4505162 C115.102248,35.2078278 113.355419,35.1107525 111.683455,34.5768382 C110.410765,34.2613433 109.113121,33.9701173 107.790522,34.018655 C108.214752,32.6110626 108.888529,31.3248144 109.262849,29.9172221 C109.736989,28.5581674 110.385811,27.2476504 110.85995,25.8885957 C111.858137,23.5345188 112.706597,21.1319043 113.754694,18.8020963 C114.203879,17.4430416 114.927565,16.205331 115.626296,14.9433517 C114.90261,15.0646959 114.278743,15.4529972 113.604966,15.7199544 C112.731552,16.1325245 111.808228,16.3024064 110.884904,16.5208259 C109.312759,16.9333961 107.690704,16.9819337 106.093603,17.1760844 C104.596322,17.2003532 102.949312,16.8120519 101.601758,17.6614611 C100.329069,18.3895261 99.7052017,19.8699249 99.8050205,21.2532485 C99.9797034,21.8357005 100.27916,22.345346 100.578616,22.8792603 C100.853118,23.4374435 101.476985,23.7044007 102.001034,23.9713578 C102.72472,23.9956267 103.548225,23.9956267 104.172092,23.5345188 C104.771005,23.0976798 105.145325,22.4181525 105.419827,21.7386251 C105.694328,21.0105601 105.369917,20.2339574 104.970642,19.6029678 C106.368105,19.4816236 107.690704,19.0447846 109.013302,18.6564832 C108.339526,20.2339574 107.1417,21.5687433 106.492878,23.1704863 C105.794147,24.4810033 105.145325,25.7915204 104.621276,27.1748439 C103.697953,29.3105012 103.123995,31.6403093 101.726532,33.5575471 C101.551849,33.7759667 101.327257,34.0429238 101.0278,34.0671927 C100.079522,34.164268 99.2061079,33.4847406 98.8068328,32.6838691 C98.4075577,31.3490833 98.4075577,29.9172221 98.4325124,28.5338986 C98.5073765,26.9806932 98.5572858,25.4517567 98.707014,23.8985513 C98.8317875,22.0298511 98.5572858,20.1126133 99.0813344,18.3167196 C98.3077389,18.4380637 97.5590981,18.5594079 96.7855026,18.7292898 C95.7124508,18.9477093 94.5645349,18.9477093 93.5413925,19.4088171 C93.3916643,19.8213873 93.3417549,20.2582263 93.3168002,20.6707964 C91.4451982,19.7971184 89.1244117,19.8699249 87.3276738,20.9377536 C86.5291236,21.617281 85.7305734,22.3210771 85.1815702,23.219024 C84.5327481,24.1655085 84.133473,25.2333372 83.7092432,26.3011659 C83.4097869,27.2233815 83.2850135,28.1941349 83.0604212,29.1406194 C82.7110555,30.7423624 82.8607837,32.3926431 82.6611461,34.018655 C82.5363727,35.3534408 82.7859196,36.7367644 82.4615086,38.0715502 C81.8625959,38.4113139 80.7895441,38.6054646 80.5150425,37.7803242 C79.8662205,35.7417422 80.0908127,33.6060848 79.9410845,31.4946963 C79.9410845,29.7958779 79.9660392,28.0970596 79.7913564,26.3982412 C79.6665829,25.4517567 79.2423531,24.5538098 78.518667,23.8985513 C77.7450715,23.1947552 76.7967932,22.5152278 75.673832,22.5394966 C74.0517769,22.4181525 72.57945,23.2432928 71.35667,24.1897773 C70.6080292,24.6994228 69.8593884,25.257606 69.2854304,25.9614022 C68.91111,25.5002944 68.5617443,24.9421112 67.9628317,24.7479605 C67.2391456,24.4081968 66.4156407,24.6023475 65.6420452,24.5780787 C65.167906,24.5538098 64.7436762,24.7479605 64.2944917,24.8693047 C62.9469383,25.257606 61.6992036,25.9128645 60.5512877,26.6651984 C60.6011971,26.1070152 60.6760612,25.5731009 60.7509253,25.0149177 C60.2518314,25.111993 59.7776922,25.2818749 59.3035531,25.403219 C57.7563621,25.7187139 56.2840352,26.3497035 54.7118895,26.6409295 C54.5621613,27.4903387 54.587116,28.3397479 54.5621613,29.2134259 C53.7386564,29.5046519 52.8901968,29.8201468 52.0417373,30.0628351 C51.7921903,28.3397479 51.9668732,26.5923919 51.9169638,24.8693047 C51.8920091,23.219024 52.066692,21.5687433 52.1166014,19.9184626 C52.066692,18.7778274 52.0417373,17.6371922 52.1166014,16.5208259 C52.1665107,14.2395555 52.1914654,11.982554 52.3661483,9.70128361 C52.6156952,7.88112108 52.391103,6.06095855 52.5657858,4.24079603 C52.1166014,4.16798952 51.6424622,4.16798952 51.1932777,4.09518302 C49.5712226,3.82822585 47.9242129,4.16798952 46.3520672,4.55629086 C45.2041513,4.92032337 43.9813713,5.18728054 42.9831836,5.89107672 C41.9849958,6.57060406 40.8620346,7.1045184 39.9636656,7.92965875 C39.4895265,8.39076659 39.1152061,8.94894977 38.6410669,9.43432644 C36.6446914,11.3758331 35.1224551,13.6813723 33.5752641,15.9626427 C32.7268045,17.1518156 32.1528466,18.4866014 31.3542964,19.7000431 C29.6573773,22.2240018 28.6591895,25.0877242 27.561183,27.8543712 C25.9890373,27.8058336 24.3919369,27.8301024 22.8197913,28.0242531 C21.3973737,28.2426726 19.9250468,28.1455972 18.5026293,28.4368232 C17.5293962,28.5581674 16.5312085,28.5581674 15.5579755,28.8008557 C13.7612375,29.2134259 11.8646808,29.4561143 10.3424445,30.5239429 C9.21948333,31.1792014 8.14643151,32.0043418 7.49760948,33.144977 C7.0234703,34.6496447 6.94860622,36.3727319 7.74715641,37.7803242 C8.5457066,38.7753464 9.66866781,39.5276802 10.9164025,39.8674439 C12.3637747,40.4256271 13.9608751,40.2557453 15.4831114,40.4013583 C16.4812991,40.4256271 17.4794869,40.2800141 18.4527199,40.2800141 C20.1745937,40.3042829 21.7966488,39.6004867 23.5185227,39.4306049 C22.2208786,44.381447 21.1228721,49.4050956 20.399186,54.4772818 C20.1496391,56.5644015 20.2245031,58.67579 20.6736876,60.7386409 C21.1727815,62.3161151 22.0461958,63.796514 23.1192476,65.0827621 C23.7181602,65.8108271 24.6913933,66.0292467 25.5148981,66.4418168 C26.3883124,66.9271935 27.4114548,66.7815805 28.3846879,66.9514623 C29.108374,67 29.8570148,66.9029247 30.5807009,67 C30.6805197,66.854387 30.7803385,66.7330428 30.8801572,66.5874298 C30.7054744,65.9321713 30.2812446,65.3497193 30.0566523,64.7187296 C29.7322413,63.9178581 29.6324226,63.0199113 29.3828756,62.1947709 C28.9087365,60.8114474 28.783963,59.3553174 28.6092801,57.8991874 C28.534416,55.5451105 28.7340536,53.1667648 28.8338724,50.8126879 C29.0335099,47.8518902 29.6324226,44.9153613 30.0316977,41.9788324 C30.331154,40.5712401 30.4559274,39.1151101 31.0049307,37.7803242 C33.6251735,37.2949475 36.1206429,36.4212695 38.6410669,35.5961292 C39.7390734,35.2320967 40.7372611,34.601107 41.8352677,34.2613433 C41.8602223,35.8630863 41.4859019,37.4648294 41.5358113,39.0665724 C41.4859019,41.7118753 41.560766,44.3329093 41.5358113,46.9782122 C41.6106754,48.167385 41.3112191,49.3322891 41.3611285,50.5214619 C41.3361738,52.6813881 41.3112191,54.8170455 41.1864456,56.9769717 C41.7853583,57.0012405 42.3593162,56.782821 42.9332742,56.6129392 C44.2059635,56.1761002 45.5285623,56.0062183 46.851161,55.7392612 C48.3234879,55.5936482 49.7209508,55.0111961 51.1932777,54.889852 C51.0185948,53.7006791 51.0685042,52.5115063 51.0934589,51.2980646 C51.0934589,50.5214619 51.0185948,49.7691281 51.0435495,48.9925254 C51.168323,47.293707 51.0185948,45.5706198 51.1932777,43.8718015 C51.1932777,41.9060259 51.4677793,39.9645192 51.5675981,37.9987437 C51.8670544,36.20285 51.7422809,34.3584187 52.1665107,32.5867938 C52.9900156,32.3441055 53.7386564,31.980073 54.5372066,31.6645781 C54.5122519,33.2177835 54.4623425,34.74672 54.5372066,36.2999254 C54.5621613,38.1443567 54.4623425,40.0130569 54.5122519,41.8574883 C54.3375691,43.2408118 54.3375691,44.6484042 54.262705,46.0317277 C54.2876597,46.274416 54.2127956,46.6141797 54.4623425,46.7597927 C55.809896,46.4928355 57.10754,46.0559965 58.4550935,45.7647705 C58.8044592,45.6676952 59.1538249,45.4978133 59.5031906,45.3764692 C60.0022845,44.5755977 59.6030094,43.6291131 59.7277828,42.7554351 C59.8525563,41.4691869 59.8026469,40.1586699 59.7776922,38.8724217 C59.8276016,37.9016684 59.7527375,36.930915 59.7277828,35.9358929 C59.7527375,34.3341498 59.9773298,32.7566756 60.2268767,31.1549326 C60.3766049,29.9657598 61.1751551,28.7523181 62.4478444,28.4853609 C62.8221648,28.4125544 63.2463946,28.2669414 63.5957603,28.4368232 C64.194673,29.0192752 64.2695371,29.8929533 64.3943105,30.6452871 C64.5440387,32.3441055 64.5939481,34.0429238 64.6438575,35.7417422 C64.6189028,38.5569269 64.7436762,41.3721116 64.3943105,44.1630275 C65.4673623,43.7261885 66.5653689,43.362156 67.7132848,43.1680053 C68.5367896,43.0223923 69.3103851,42.7068975 70.1588447,42.7068975 C70.2087541,41.0080791 70.3834369,39.3092607 70.5830745,37.6347112 C70.7577574,36.2271189 70.6579386,34.8195265 70.7577574,33.4119341 C70.782712,32.271299 70.8575761,31.1306638 70.707848,30.0142974 C70.7328027,29.1163506 70.5082104,28.2669414 70.1588447,27.4660699 C70.5830745,27.0292309 71.0572137,26.568123 71.7309904,26.4710477 C72.7042234,26.2040905 73.6275471,26.9078867 73.9519581,27.7572959 C74.4260973,29.4075766 74.1765504,31.1063949 74.201505,32.7809445 C74.1765504,34.0914615 74.451052,35.3534408 74.451052,36.6639579 C74.4760067,37.9259372 74.5009614,39.2607231 75.1996928,40.3770894 C75.4991491,40.8381973 76.0481524,40.9352726 76.5222915,41.1294233 C77.295887,41.4449181 78.1693013,41.4206493 78.9928062,41.3478428 C79.9660392,41.2264986 80.9891817,40.9352726 81.7128678,40.2314764 C82.3367351,39.6004867 83.0105118,39.0180347 83.6343792,38.3627762 C84.0336543,39.2364542 84.8821138,39.8189062 85.7305734,40.2557453 C86.7038065,40.5712401 87.801813,40.4741648 88.7500913,40.1344011 C90.646648,39.4791426 92.2437484,38.1443567 93.416619,36.5668825 C93.8658035,37.367754 94.6144443,38.1443567 95.5627226,38.3142386 C97.1348683,38.3385074 98.6321499,37.8773995 100.054567,37.2706787 C99.7052017,37.9744749 99.280972,38.6540022 98.9815156,39.3820672 C98.8567422,39.5762179 98.9565609,39.7703686 99.1811532,39.8431751 C100.129432,39.1879166 101.002846,38.3870451 102.100852,37.9259372 C104.271911,36.6882267 106.942063,36.20285 109.412577,36.7610332 C110.660312,36.9794527 111.833183,37.4405605 113.105872,37.6104424 C115.651251,38.1928944 118.246539,38.5569269 120.866782,38.7510776 C122.413973,38.9209594 123.936209,39.1151101 125.4834,39.2364542 C126.980682,39.1879166 128.453009,39.3577984 129.95029,39.1879166 C131.5973,39.2607231 133.1944,38.8966906 134.791501,38.5326581 C135.714824,38.2657009 136.638148,37.950206 137.586426,37.7560554 C138.335067,37.6347112 138.983889,37.222141 139.682621,36.9551839 C141.229812,36.3970007 142.55241,35.4262473 143.974828,34.6496447 C146.245705,33.3633965 147.86776,31.2277391 148.940812,28.9464687 C149.389996,28.1455972 149.564679,27.2476504 149.839181,26.3982412 C150.188547,25.5245632 149.88909,24.529541 149.689453,23.5587877 Z M25.9890373,31.1063949 C25.2903059,32.6838691 24.8161667,34.3584187 24.3919369,36.0329682 C23.9427525,36.2271189 23.5185227,36.4698072 23.0194288,36.5911514 C20.1496391,37.1250657 17.1051665,37.3920229 14.2603314,36.5183449 C13.6364641,36.348463 13.1872796,35.8145487 13.0874608,35.2078278 C13.0125967,34.6981823 12.7880045,34.1885368 12.987642,33.6788913 C13.4368265,32.5139873 14.4849236,31.6645781 15.6577942,31.1792014 C17.6791244,30.1841793 19.9749562,30.0142974 22.1709692,29.8201468 C23.5933867,29.8444156 25.040759,29.7230714 26.4631765,29.8686844 C26.338403,30.2812546 26.1886749,30.6938248 25.9890373,31.1063949 Z M39.0652967,33.436203 C37.5181057,33.9943862 35.9210053,34.309881 34.3488596,34.74672 C33.3257172,35.0136772 32.2776201,35.1350213 31.2794323,35.4019785 C31.5289793,33.7516978 31.628798,32.0528795 32.3524841,30.5239429 C33.749947,30.5239429 35.047591,31.0335884 36.3951445,31.3490833 C37.9672902,31.7131158 39.5394359,32.0771483 41.0616722,32.6596003 C40.337986,32.9022886 39.689164,33.144977 39.0652967,33.436203 Z M42.459135,21.7386251 C42.4840897,24.1412397 42.3343615,26.5438542 42.0848146,28.9464687 C41.9600411,29.9900286 42.0598599,31.0578573 41.9600411,32.1014171 C40.9868081,31.7616535 40.0634844,31.3733521 39.1401608,30.9365131 C38.1170183,30.4268676 36.9940571,30.0628351 35.94596,29.5774584 C34.8978629,29.1406194 33.7998564,28.8736622 32.6768952,28.7037804 C32.8016686,27.7330271 33.175989,26.8350802 33.3756266,25.8643269 C34.1492221,23.5830565 34.9228176,21.3017861 35.9210053,19.1175911 C36.7944196,17.4187727 37.5680151,15.6714167 38.7907951,14.166749 C40.0385297,12.7348878 41.1115815,11.0603383 42.8334554,10.1138538 C42.9083195,13.9968672 42.5839085,17.8556117 42.459135,21.7386251 Z M93.7160753,28.5338986 C93.6911206,29.5046519 93.6412112,30.4996741 93.416619,31.4704274 C93.1171627,32.6110626 92.9424798,33.8002355 92.3685219,34.8680642 C91.5949264,36.2271189 89.2491852,36.2271189 88.4256803,34.9166018 C87.6770395,32.9265575 87.7269489,30.7423624 88.1511787,28.6795116 C88.3757709,27.7087582 88.4755897,26.713736 88.8000007,25.7672515 C89.0495476,24.9421112 89.1493664,24.0198955 89.7981884,23.364637 C90.1974635,22.9763356 90.5717839,22.5880343 91.0459231,22.3210771 C91.545017,22.05412 92.1439296,22.199733 92.6180688,22.4666901 C93.1421174,23.073411 93.5913018,23.7529383 93.6911206,24.5538098 C93.8907582,25.8643269 93.7659847,27.1991127 93.7160753,28.5338986 Z" id="Shape"></path>
                    <path d="M96.9387755,44.9157006 C98.1877787,44.2955984 99.6049169,44.1524979 100.974017,44.0332475 C102.006846,43.9378471 103.063695,44.0570975 104.072505,44.2717483 C106.474434,44.8441504 108.924402,45.4404025 111.0381,46.7521573 C112.167007,47.3961096 113.151798,48.3024129 114.112569,49.161016 C114.929225,49.9003687 115.625785,50.8066719 116.034113,51.8322257 C116.826749,53.4778816 115.914016,55.5051389 114.42482,56.4114422 C112.695431,57.2700453 110.533695,57.174645 108.876364,56.2206415 C107.363148,55.2904882 106.642569,53.6209821 105.777875,52.1422768 C105.225431,51.0213227 104.624949,49.8765186 103.760254,48.9702153 C102.343116,47.5869103 100.733824,46.394406 98.9083574,45.559653 C98.2838559,45.2257518 97.5872964,45.1303514 96.9387755,44.9157006 Z" id="Shape"></path>
                    <path d="M90.8163265,46 C91.8412057,46.2416855 92.8917068,46.5558767 93.8140981,47.0875848 C94.9158432,47.6917985 96.0175882,48.2718437 97.0937114,48.9243946 C97.7342608,49.3352599 98.2723224,49.866968 98.8872499,50.3020019 C99.6815312,50.8820471 100.270837,51.6796093 100.988252,52.3321601 C103.29423,54.6765095 104.370353,57.7700839 105.292745,60.7911527 C105.88205,62.5071197 106.163892,64.319761 106.112648,66.1324022 C106.189514,68.6459314 105.830806,71.2803034 104.447219,73.4796415 C103.960402,74.1321923 103.601694,74.9297545 102.858657,75.3647884 C101.987509,76.0898449 101.013874,76.7665643 99.8608851,76.9840812 C98.2723224,77.0807554 96.6325157,76.7423957 95.3514168,75.8239908 C93.916586,74.6155633 92.9685728,72.8754277 92.8917068,71.0386179 C92.8660848,69.7093476 92.8148409,68.3075717 93.3529024,67.0266386 C93.6347442,66.3015821 93.83972,65.5765256 94.2240497,64.8998062 C94.9670871,63.3771875 95.6076366,61.8304003 96.0432102,60.2111075 C96.29943,59.0510171 96.2481861,57.8425895 96.350674,56.6824991 C96.1713201,54.3139812 95.6845025,51.9212948 94.4546475,49.8186309 C93.83972,48.9243946 93.2247925,48.0059897 92.3792672,47.2809332 C91.8668277,46.8700678 91.2775222,46.5075396 90.8163265,46 Z" id="Shape"></path>
                    <path d="M59.8708961,47.856618 C60.3442012,47.5948736 60.7925956,47.2379494 61.2908115,47 C61.0417035,47.6186685 60.61822,48.2135421 60.6680416,48.9035955 C60.2943796,51.2117051 60.6431308,53.5674045 60.3940228,55.8755141 C60.4189336,58.2312135 60.6431308,60.563118 60.5434876,62.9188175 C62.5363514,63.561281 64.5292151,64.1323596 66.5220789,64.798618 C67.5434216,64.9651827 68.7142291,64.798618 69.5611962,64.2275394 C69.9597689,63.98959 69.9597689,63.4423062 70.4081633,63.2995366 C70.3583417,64.1799495 70.0594121,65.0603624 69.586107,65.8218006 C69.0380694,66.5832388 68.0167267,66.8211883 67.119938,66.9639579 C65.4509146,67.1781124 63.9064452,66.3928793 62.4367082,65.7980057 C61.1164359,65.3221068 59.8459853,64.5844636 58.401159,64.5130787 C57.8531215,64.4178989 57.3299948,64.6320534 56.806868,64.798618 C56.931422,64.1323596 57.2552624,63.5136911 57.3798164,62.8474326 C57.6538351,61.4911208 57.9278539,60.134809 57.8282107,58.7547023 C57.7534783,57.3032107 57.7285675,55.8517191 57.5541919,54.4240225 C57.4047272,53.0201208 57.5043703,51.5924242 57.3798164,50.1885225 C56.1093657,50.9499607 55.212577,52.2824775 55.1876662,53.7339691 C55.3122202,54.4478174 55.5115066,55.2092557 56.1591873,55.6851545 C55.212577,56.1610534 54.0168587,55.6137697 53.3940888,54.8999214 C52.9955161,54.0195085 52.9456945,52.9963259 53.2944456,52.092118 C53.5435536,51.2830899 54.2410559,50.7358062 54.8887366,50.2361124 C55.6858822,49.6412388 56.682314,49.4270843 57.5541919,48.9749803 C58.3015159,48.5942612 59.1235722,48.284927 59.8708961,47.856618 Z" id="Shape"></path>
                    <path d="M89.2208827,52.2620829 C88.9955878,51.633875 88.5449978,51.1061804 88.0693752,50.6538707 C87.7689819,50.3272027 87.3684575,50.0256629 87.2683264,49.5733532 C87.1431625,48.920017 87.2933592,48.2415526 87.318392,47.5882164 C86.4422449,48.4677074 85.2657046,49.1210436 84.0140659,49.1964285 C83.888902,50.0507912 83.5384432,50.8548973 83.0628205,51.5836184 C82.7123617,52.1615696 82.0615096,52.4631094 81.4857558,52.7395208 C81.6109197,51.70926 81.5107886,50.6036141 80.8849693,49.6989948 C80.5345105,49.1713002 79.8335928,48.995402 79.257839,49.1713002 C78.3316264,49.4477117 77.3803811,49.6487382 76.5793323,50.2015611 C76.5793323,49.2215568 76.6794634,48.2164242 76.6794634,47.23642 C76.5793323,46.4825706 76.6544306,45.7287211 76.6043651,45 C76.0035785,45.3517964 75.5029231,45.9046193 74.852071,46.2061591 C74.5516777,46.4071856 74.076055,46.5076989 74.0259895,46.9097519 C73.750629,48.0153977 74.0259895,49.1713002 73.9508911,50.3020743 C73.6254651,53.0661889 74.0259895,55.8303035 73.750629,58.5944181 C73.6504979,59.222626 73.4502357,59.9262188 72.8244164,60.2026302 C72.3487937,60.5292983 71.7229743,60.2780152 71.4476138,59.8005772 C70.8468273,59.0467278 71.0721222,58.0415952 71.097155,57.1621042 C71.0721222,55.8051752 71.1972861,54.4733745 71.2974172,53.1164456 C71.3474827,52.3877244 71.5727777,51.6841316 71.647876,50.9554105 C70.4713357,51.4328485 69.219697,51.8600298 67.9179928,51.8097732 C67.9179928,51.9102865 67.8929601,52.1364413 67.8679273,52.2620829 C67.3422391,52.0610564 66.7414525,51.8349015 66.1907315,52.111313 C64.5135357,52.8651624 63.487192,54.5236312 62.7362088,56.1318433 C62.0853567,57.9662102 62.0603239,60.0769887 62.7862744,61.8862273 C63.0115693,62.665205 63.3870609,63.5195677 64.2131424,63.8211075 C65.139355,64.2482888 66.1156332,63.8211075 66.9917802,63.4693111 C67.6676651,63.1928996 68.118255,62.5646918 68.5688449,62.0118689 C68.9443365,62.263152 69.2947954,62.5646918 69.7453853,62.6400767 C71.2723844,62.9667448 72.8494491,62.3134086 73.8757928,61.1826345 C74.4515466,61.9867405 75.4778903,62.1123821 76.3790701,61.9113556 C77.5055449,61.6349441 78.6820853,61.3334044 79.6082979,60.5795549 C80.7848382,59.549294 81.7110508,58.1169801 81.7360836,56.508768 C81.686018,56.0062017 81.6109197,55.5287637 81.686018,55.0261975 C82.1366079,54.8754276 82.6122306,54.7749143 83.012755,54.5487595 C84.0390987,53.8200384 84.6899508,52.6892642 85.1655735,51.5584901 C85.7913928,52.3625961 86.1168189,53.3426004 86.4172121,54.2974763 C86.7176054,55.0010691 86.9929659,55.7297903 87.1181298,56.508768 C86.9929659,57.4133873 86.1668844,58.4436482 85.1405407,58.1672368 C84.8151147,58.1169801 84.664918,57.7651837 84.4646558,57.5390289 C85.2406718,57.2877458 86.0667533,56.7600511 86.2169499,55.8805601 C86.3921794,55.2523523 86.0667533,54.272348 85.2907373,54.347733 C83.7136726,54.6995294 82.5371323,56.5841529 83.2130172,58.1169801 C83.8138037,59.2477543 85.0904752,60.2780152 86.4422449,59.8508338 C87.5937525,59.4487808 88.9455222,59.0215994 89.4962432,57.8154404 C89.9968987,56.0062017 89.846702,54.0461932 89.2208827,52.2620829 Z M68.0431567,59.2980109 C67.8679273,60.102117 67.3422391,60.8057098 66.6162886,61.1826345 C66.1656987,61.4087893 65.5148466,61.3082761 65.3145844,60.8057098 C64.8890273,59.7754489 64.6887651,58.6195464 64.8639945,57.5139006 C65.0141912,56.5841529 65.0141912,55.5790204 65.5649122,54.749786 C65.8903382,54.347733 66.2658298,53.9205516 66.7664853,53.7195251 C67.0919113,53.6441402 67.7177307,53.468242 67.8428945,53.9205516 C68.3185172,55.6795336 68.3936155,57.5139006 68.0431567,59.2980109 Z M79.3329374,55.7046619 C79.2328063,56.7349228 79.1577079,57.8405687 78.4818231,58.669803 C78.156397,59.0718561 77.6307088,59.3231392 77.1050205,59.2980109 C76.7795945,59.147241 76.5292668,58.8205729 76.5292668,58.4436482 C76.5292668,57.1621042 76.6293979,55.8805601 76.6293979,54.5990161 C76.7044962,53.8451667 76.6293979,53.0913172 76.8046273,52.3625961 C76.8797256,51.9856714 77.28025,51.8097732 77.605676,51.6841316 C78.0812987,51.5333617 78.5318886,51.8097732 78.9574458,52.035928 C79.4080357,53.1918305 79.3579701,54.4482462 79.3329374,55.7046619 Z" id="Shape"></path>
                </g>
            </g>
        </g>
    </g>
</svg>