
<svg width="28px" height="28px" viewBox="0 0 28 28" version="1.1" xmlns="http://www.w3.org/2000/svg" xmlns:xlink="http://www.w3.org/1999/xlink">
    <!-- Generator: Sketch 51.3 (57544) - http://www.bohemiancoding.com/sketch -->
    <desc>Created with Sketch.</desc>
    <defs></defs>
    <g id="Page-1" stroke="none" stroke-width="1" fill="none" fill-rule="evenodd">
        <g id="Desktop-HD" transform="translate(-1001.000000, -447.000000)" fill="#CCCCCC" fill-rule="nonzero">
            <g id="menu-item" transform="translate(410.000000, 393.000000)">
                <g id="check" transform="translate(591.000000, 54.000000)">
                    <path d="M13.9999614,28 C6.28066938,28 0,21.7198532 0,14.0000771 C0,6.2802239 6.28066938,0 13.9999614,0 C21.7193306,0 28,6.2802239 28,14.0000771 C28,21.7198532 21.7193306,28 13.9999614,28 Z M13.9999614,0.903190974 C6.77815577,0.903190974 0.903188486,6.77863723 0.903188486,14.0000771 C0.903188486,21.221517 6.77815577,27.0968862 13.9999614,27.0968862 C21.2218442,27.0968862 27.0968115,21.221517 27.0968115,14.0000771 C27.0968115,6.77863723 21.2218442,0.903190974 13.9999614,0.903190974 Z" id="Shape"></path>
                    <polygon id="Shape" points="11.9563099 20 7 14.8931523 7.63243763 14.2415843 11.9563099 18.6967067 21.3675624 9 22 9.65156794"></polygon>
                </g>
            </g>
        </g>
    </g>
</svg>