<svg xmlns="http://www.w3.org/2000/svg" xmlns:xlink="http://www.w3.org/1999/xlink" version="1.1" x="0px" y="0px" viewBox="0 0 100 125" enable-background="new 0 0 100 100" xml:space="preserve"><g><path d="M92.5,83.985c-1.916-1.637-4.812-3.084-7.856-4.549l-0.037-0.018c-7.016-3.371-17.618-8.468-27.565-19.468   c-5.885-6.507-10.473-16.02-13.825-22.969l-0.092-0.189c-2.118-4.368-3.791-7.818-5.326-9.691   c-3.583-4.328-10.917-6.597-18.412-3.026c-2.217-4.677-0.912-6.146,1.85-8.726c1.566-1.463,0.869-2.723-0.086-4.334   c-0.358-0.606-1.295-2.131-2.243-3.19c-1.687-1.884-3.194-1.149-3.761-0.695c-0.681,0.543-2.569,2.338-2.819,2.608   c-2.524,2.723-3.754,5.524-3.831,9.47c-0.066,3.467,0.882,7.151,2.691,10.567c-2.205,2.105-4.75,5.252-5.903,10.859   c-1.593,7.768,3.836,16.333,8.671,22.15c6.05,7.281,14.574,14.346,23.388,19.384c11.107,6.351,24.557,9.044,31.586,10.085   c5.145,0.762,10.145,1.146,14.318,1.146c3.805,0,6.923-0.318,8.842-0.959c1.303-0.437,2.105-1.043,2.458-1.859   C95.56,88.229,94.871,86.01,92.5,83.985z M91.197,89.575c-2.13,0.834-8.821,1.349-19.308,0.037   c-7.386-0.924-21.5-3.461-33.05-10.063c-8.511-4.864-16.734-11.678-22.564-18.692c-6.235-7.504-9.09-14.469-8.034-19.612   c0.905-4.396,2.728-6.96,4.55-8.812c1.98,3.01,4.473,6.504,4.988,7.228c0.296,0.411,0.76,0.631,1.229,0.631   c0.304,0,0.611-0.091,0.878-0.282c0.678-0.484,0.834-1.428,0.35-2.105c-0.56-0.781-3.444-4.83-5.443-7.93   c-2.182-3.399-3.348-7.203-3.279-10.707c0.061-3.1,1.551-5.764,3.176-7.651c1.652-1.921,2.793-0.81,3.306-0.025   c0.536,0.821,1.243,1.47,0.135,2.609c-1.588,1.633-2.555,2.937-2.856,4.852c-0.342,2.179,0.399,4.673,2.563,8.605   c0.011,0.018,0.021,0.036,0.031,0.054c1.333,2.2,4.854,7.154,5.548,8.125c0.484,0.68,1.427,0.836,2.105,0.352   c0.68-0.483,0.836-1.428,0.353-2.105c-0.383-0.538-3.533-4.958-5.056-7.346c6.055-2.813,11.856-1.086,14.647,2.285   c1.306,1.592,2.909,4.9,4.94,9.09l0.091,0.188c3.43,7.111,8.127,16.849,14.302,23.679c10.347,11.439,21.271,16.689,28.498,20.164   l0.036,0.019c2.748,1.317,5.566,2.725,7.205,4.122C92.187,87.688,92.458,89.082,91.197,89.575z"/><path d="M31.713,28.359c-1.47-0.825-3.297-0.801-5.013,0.067c-0.744,0.377-1.042,1.286-0.665,2.029   c0.376,0.744,1.284,1.041,2.028,0.665c0.803-0.407,1.594-0.454,2.17-0.129c0.51,0.285,0.822,0.83,0.877,1.535   c0.125,1.578-2.346,4.644-3.397,5.656c-0.841,0.811-1.646,1.471-2.337,1.916c-3.359,2.199-9.434,4.928-11.427,2.887   c-0.091-0.09-0.183-0.229-0.181-0.551c0.006-0.834-0.666-1.515-1.5-1.521c-0.002,0-0.006,0-0.01,0c-0.83,0-1.504,0.67-1.51,1.5   c-0.006,1.058,0.355,1.987,1.043,2.687c1.15,1.178,2.662,1.623,4.291,1.623c4.391,0,9.632-3.238,10.938-4.093   c0.844-0.543,1.808-1.331,2.787-2.274c0.047-0.045,4.598-4.471,4.313-8.068C33.986,30.575,33.109,29.142,31.713,28.359z"/></g></svg>